# xmcd
#
# Track frame offsets:
#	150
#	10010
#	20567
#	37254
#	57116
#	76994
#	89973
#	102920
#	119613
#	134788
#	152106
#	162867
#	178183
#
# Disc length: 2674 seconds
#
# Revision: 1
# Processed by: cddbd v1.4PL0 Copyright (c) Steve Scherf et al.
# Submitted via: audiograbber 1.81.02
#
DISCID=b40a700d
DTITLE=Fiftymen - After Darkfall
DYEAR=2002
DGENRE=
TTITLE0=Jimmy Turner
TTITLE1=Faith Or Fate
TTITLE2=Forsaken
TTITLE3=Out Of My Head
TTITLE4=After Darkfall
TTITLE5=Whiskey and Lulu
TTITLE6=Gracefield
TTITLE7=Filled With Black
TTITLE8=Black River
TTITLE9=Steve Earle
TTITLE10=King Vagabond
TTITLE11=Sometimes Remember
TTITLE12=Long Time Coming
EXTD=
EXTT0=
EXTT1=
EXTT2=
EXTT3=
EXTT4=
EXTT5=
EXTT6=
EXTT7=
EXTT8=
EXTT9=
EXTT10=
EXTT11=
EXTT12=
PLAYORDER=
